<svg xmlns="http://www.w3.org/2000/svg" width="50" height="70" xmlns:v="https://vecta.io/nano"><defs><linearGradient  x1="35.711" y1="0" x2="105.711" y2="0" gradientUnits="userSpaceOnUse"><stop offset="0" stop-color="#fc0000"/><stop offset="1"/></linearGradient><linearGradient  x1="0" y1="0" x2="100" y2="100" gradientUnits="userSpaceOnUse"><stop offset="0"/><stop offset="1" stop-color="#f70000"/></linearGradient><linearGradient id="C" x1="9.623" y1="12.914" x2="10.834" y2="17.768" gradientUnits="userSpaceOnUse"><stop offset="0"/><stop offset="1" stop-color="#d4aa00"/></linearGradient></defs><g transform="scale(2.5)"><rect width="19.704" height="27.704" x=".148" y=".148" rx="2.66" ry="4.947" fill="#fbf7ef" stroke="#000" stroke-width=".296"/><path d="M1.571 2.019C1.117 2.86 3 4.5 3 4.5s1.884-1.64 1.429-2.481c-.235-.435-.698-.906-1.437-.008-.722-.895-1.189-.422-1.422.008z" fill="#c00"/><path d="M5.515 15.061L4.013 12.94l.106-1.768s.472-.538.795-.654c.222-.08.707 0 .707 0l.283.177s.587-.296.902-.283c.267.011.742.301.742.301s.427-.07.636-.035c.169.028.477.194.477.194l.495-.318-.336 3.977zm7.742.044l1.503-2.121-.106-1.768s-.472-.538-.795-.654c-.222-.08-.707 0-.707 0l-.283.177s-.587-.296-.902-.283c-.267.011-.742.301-.742.301s-.427-.07-.636-.035c-.169.028-.477.194-.477.194l-.495-.318.336 3.977z" fill="#b30000"/><path d="M2.036 25.966c.715.342 1.974-1.31 1.974-1.31s-1.444-1.501-2.114-1.083c-.347.216-.713.625.064 1.203-.703.645-.29 1.015.076 1.19z"/><path d="M4.013 23.552c-.709-.361-2.023 1.256-2.023 1.256s1.41 1.539 2.096 1.139c.355-.207.735-.606-.03-1.204.725-.626.321-1.007-.043-1.191z"/><path d="M2.806 25.527c.038.706-.29.973-.29.973h.968s-.34-.377-.29-.973"/><g fill="#c00"><path d="M15.571 24.791C15.117 25.37 17 26.5 17 26.5s1.883-1.13 1.429-1.709c-.235-.299-.697-.625-1.437-.005-.722-.617-1.189-.291-1.422.005z"/><path d="M18.429 25.209C18.883 24.63 17 23.5 17 23.5s-1.883 1.13-1.429 1.709c.235.299.697.625 1.437.005.722.617 1.189.291 1.422-.005z"/></g><path d="M16.81 3.505c.037.723-.286.996-.286.996h.953s-.334-.386-.286-.996"/><path d="M18.43 3.576C18.884 2.873 17 1.5 17 1.5s-1.883 1.373-1.429 2.076c.235.364.698.758 1.437.006.722.749 1.189.353 1.422-.007z"/><path d="M4.805 15.997c.011.477 3.048.405 4.581.405 1.543 0 4.621.054 4.612-.406-.009-.486-4.472-1.113-4.472-1.113s-4.729.779-4.722 1.113z" fill="url(#C)"/><g fill="#d4aa00"><path d="M4.8 16s3.044-.8 4.6-.8 4.6.8 4.6.8v-.8s-3.044-.8-4.6-.8-4.6.8-4.6.8z"/><path d="M8.056 14.525s.048-.504.175-.713c.092-.151.303-.202.4-.35.153-.234.197-.526.25-.8.174-.895.225-2.65.225-2.65h.3v4.4z"/><path d="M10.744 14.525s-.048-.504-.175-.713c-.092-.151-.303-.202-.4-.35-.153-.234-.197-.526-.25-.8-.174-.895-.225-2.65-.225-2.65h-.3v4.4zm-1.636-4.506l-1.206-.534s-.735-.301-1.123-.38c-.428-.087-.889-.227-1.307-.1-.353.108-.658.384-.87.687-.232.332-.31.755-.379 1.154-.083.475-.118.969-.039 1.444.094.57.208 1.201.6 1.625.164.176.476.141.657.3.215.189.455.728.455.728l-1.096.261-.645-1.158c-.227-.515-.468-1.043-.532-1.602-.065-.566.015-1.151.16-1.702.111-.422.255-.859.534-1.195.289-.347.679-.652 1.115-.769.481-.13 1.005-.001 1.489.115.769.184 2.191.907 2.191.907z"/><path d="M9.69 10.018l1.207-.534s.735-.301 1.123-.38c.428-.087.889-.227 1.307-.1.353.108.658.384.87.687.232.332.31.755.379 1.154.083.475.118.969.039 1.444-.094.57-.208 1.201-.6 1.625-.164.176-.476.141-.657.3-.215.189-.455.728-.455.728l1.096.261.645-1.158c.227-.515.468-1.043.532-1.602.065-.566-.015-1.151-.16-1.702-.111-.422-.255-.859-.534-1.195-.289-.347-.679-.652-1.115-.769-.481-.13-1.005-.001-1.489.115-.769.184-2.191.907-2.191.907zm-.132-.229V8.594l.14-.12h.6l.1.1h.1l.1-.1v-.16l-.1-.1h-.1l-.1.1h-.6l-.14-.12v-.52l.1-.1v-.1l-.129-.1h-.131v2.484c.243.001.163.006.16-.069z"/><path d="M9.242 9.789V8.594l-.14-.12h-.6l-.1.1h-.1l-.1-.1v-.16l.1-.1h.1l.1.1h.6l.14-.12v-.52l-.1-.1v-.1l.129-.1h.131v2.484c-.243.001-.163.006-.16-.069z"/><path d="M9.108 9.795c.286-.123.583.003.583.003v.216l-.586.002z"/></g></g></svg>