<?xml version="1.0" encoding="UTF-8" standalone="no"?>
<svg
   width="50"
   height="70"
   version="1.1"
   id="svg22"
   sodipodi:docname="reloadCard.svg"
   inkscape:version="1.4.2 (f4327f4, 2025-05-13)"
   xml:space="preserve"
   xmlns:inkscape="http://www.inkscape.org/namespaces/inkscape"
   xmlns:sodipodi="http://sodipodi.sourceforge.net/DTD/sodipodi-0.dtd"
   xmlns="http://www.w3.org/2000/svg"
   xmlns:svg="http://www.w3.org/2000/svg"><sodipodi:namedview
     id="namedview22"
     pagecolor="#ffffff"
     bordercolor="#000000"
     borderopacity="0.25"
     inkscape:showpageshadow="2"
     inkscape:pageopacity="0.0"
     inkscape:pagecheckerboard="0"
     inkscape:deskcolor="#d1d1d1"
     inkscape:zoom="4.9093414"
     inkscape:cx="-10.795745"
     inkscape:cy="28.109677"
     inkscape:window-width="1280"
     inkscape:window-height="730"
     inkscape:window-x="-6"
     inkscape:window-y="-6"
     inkscape:window-maximized="1"
     inkscape:current-layer="g22" /><defs
     id="defs6"><linearGradient
       x1="35.711"
       y1="0"
       x2="105.711"
       y2="0"
       gradientUnits="userSpaceOnUse"
       id="linearGradient2"><stop
         offset="0"
         stop-color="#fc0000"
         id="stop1" /><stop
         offset="1"
         id="stop2" /></linearGradient><linearGradient
       x1="0"
       y1="0"
       x2="100"
       y2="100"
       gradientUnits="userSpaceOnUse"
       id="linearGradient4"><stop
         offset="0"
         id="stop3" /><stop
         offset="1"
         stop-color="#f70000"
         id="stop4" /></linearGradient><linearGradient
       id="C"
       x1="9.623"
       y1="12.914"
       x2="10.834"
       y2="17.768"
       gradientUnits="userSpaceOnUse"><stop
         offset="0"
         id="stop5" /><stop
         offset="1"
         stop-color="#d4aa00"
         id="stop6" /></linearGradient></defs><g
     transform="scale(2.5)"
     id="g22"><rect
       width="19.704"
       height="27.704"
       x=".148"
       y=".148"
       rx="2.66"
       ry="4.947"
       fill="#fbf7ef"
       stroke="#000"
       stroke-width=".296"
       id="rect6" /><g
       style="fill:#000000"
       id="g1"
       transform="matrix(0.15835555,0,0,0.15835555,2.3979249,6.3989334)"><g
         id="g2"><path
           d="m 94.2422,37.7578 a 5.9979,5.9979 0 0 0 -8.4844,0 l -2.61,2.61 A 36.0347,36.0347 0 0 0 48,12 35.55,35.55 0 0 0 26.3789,19.3594 5.997726,5.997726 0 0 0 33.6211,28.9219 23.6677,23.6677 0 0 1 48,24 23.957,23.957 0 0 1 70.6729,40.4766 l -3.97,-3.1641 a 5.9956,5.9956 0 1 0 -7.4765,9.375 l 15.0351,12 a 5.99,5.99 0 0 0 7.98,-0.4453 l 12,-12 a 5.9979,5.9979 0 0 0 7e-4,-8.4844 z"
           id="path1" /><path
           d="M 62.3789,67.0781 A 23.6675,23.6675 0 0 1 48,72 23.957,23.957 0 0 1 25.3271,55.5234 l 3.97,3.1641 a 5.9956,5.9956 0 1 0 7.4765,-9.375 l -15.0351,-12 a 6.0071,6.0071 0 0 0 -7.98,0.4453 l -12,12 a 5.9994,5.9994 0 0 0 8.4844,8.4844 l 2.61,-2.61 A 36.0347,36.0347 0 0 0 48,84 35.55,35.55 0 0 0 69.6211,76.6406 5.997726,5.997726 0 1 0 62.3789,67.0781 Z"
           id="path2" /></g></g></g></svg>
