<?xml version="1.0" encoding="UTF-8" standalone="no"?>
<!-- Created with Inkscape (http://www.inkscape.org/) -->

<svg
   width="48"
   height="48"
   viewBox="0 0 48 48"
   version="1.1"
   id="svg1"
   inkscape:version="1.4.2 (f4327f4, 2025-05-13)"
   sodipodi:docname="win_icon_black.svg"
   xmlns:inkscape="http://www.inkscape.org/namespaces/inkscape"
   xmlns:sodipodi="http://sodipodi.sourceforge.net/DTD/sodipodi-0.dtd"
   xmlns="http://www.w3.org/2000/svg"
   xmlns:svg="http://www.w3.org/2000/svg">
  <sodipodi:namedview
     id="namedview1"
     pagecolor="#ffffff"
     bordercolor="#000000"
     borderopacity="0.25"
     inkscape:showpageshadow="2"
     inkscape:pageopacity="0.0"
     inkscape:pagecheckerboard="0"
     inkscape:deskcolor="#d1d1d1"
     inkscape:document-units="px"
     inkscape:zoom="8.0000001"
     inkscape:cx="14.5625"
     inkscape:cy="24.75"
     inkscape:window-width="1280"
     inkscape:window-height="730"
     inkscape:window-x="-6"
     inkscape:window-y="-6"
     inkscape:window-maximized="1"
     inkscape:current-layer="layer1" />
  <defs
     id="defs1" />
  <g
     inkscape:label="Ebene 1"
     inkscape:groupmode="layer"
     id="layer1"
     transform="matrix(1.5714286,0,0,1.5714286,8.2854991,1.9999991)">
    <rect
       style="fill:#000000;fill-opacity:1;stroke:#fbf7ef;stroke-width:0.29619;stroke-linecap:round;stroke-dasharray:none;stroke-opacity:1"
       id="rect1"
       width="19.70381"
       height="27.70381"
       x="0.14809558"
       y="0.14809558"
       rx="2.6600142"
       ry="4.9471087" />
    <path
       style="fill:#ddbf5e;fill-opacity:1;stroke:#fbf7ef;stroke-width:0.235436;stroke-linecap:round;stroke-dasharray:none;stroke-opacity:1"
       d="m 2.6143358,9.0973162 c 0.6791606,2.4787708 1.4281649,3.6588928 2.2724014,3.6588928 1.2703103,0 1.7266923,-3.6749169 1.7043011,-3.6588928 0,0 0.1420242,3.6588928 1.7043001,3.6588928 1.6394509,0 1.7043016,-3.6588928 1.7043016,-3.6588928 0,0 0.43399,3.6588928 1.704302,3.6588928 1.270309,0 1.704298,-3.6588928 1.704298,-3.6588928 0,0 0.433991,3.6588928 1.704302,3.6588928 1.270312,0 2.272401,-3.6588928 2.272401,-3.6588928 l -2.272401,9.7570398 c -3.808889,-0.970087 -6.4456165,-1.026424 -10.2258048,0 z"
       id="path1"
       sodipodi:nodetypes="cscscaczcccc" />
    <path
       style="fill:none;fill-opacity:1;stroke:#fbf7ef;stroke-width:0.2;stroke-linecap:round;stroke-dasharray:none;stroke-opacity:1"
       d="m 4.6875,17.78125 c 0,0 2.8093034,-0.769753 5.468593,-0.763857 3.239617,0.0072 5.218907,0.888857 5.218907,0.888857"
       id="path2"
       sodipodi:nodetypes="csc" />
    <path
       sodipodi:type="star"
       style="fill:#fbf7ef;fill-opacity:1;stroke:#fbf7ef;stroke-width:0;stroke-linecap:round;stroke-dasharray:none;stroke-opacity:1"
       id="path3-1"
       inkscape:flatsided="false"
       sodipodi:sides="5"
       sodipodi:cx="6.8445725"
       sodipodi:cy="17.732912"
       sodipodi:r1="0.089928627"
       sodipodi:r2="0.044964314"
       sodipodi:arg1="0.82884906"
       sodipodi:arg2="1.4571676"
       inkscape:rounded="0"
       inkscape:randomized="0"
       d="m 6.9053395,17.799203 -0.055669,-0.02162 -0.049367,0.0336 0.00336,-0.05962 -0.047214,-0.03657 0.057743,-0.01523 0.020187,-0.0562 0.032331,0.05021 0.05969,0.0018 -0.037761,0.04626 z"
       inkscape:transform-center-x="0.024812628"
       inkscape:transform-center-y="-0.010928871"
       transform="matrix(4.0961902,-0.43122928,0.43122928,4.0961902,-29.096119,-51.766258)" />
    <path
       sodipodi:type="star"
       style="fill:#fbf7ef;fill-opacity:1;stroke:#fbf7ef;stroke-width:0;stroke-linecap:round;stroke-dasharray:none;stroke-opacity:1"
       id="path3-1-6"
       inkscape:flatsided="false"
       sodipodi:sides="5"
       sodipodi:cx="6.8445725"
       sodipodi:cy="17.732912"
       sodipodi:r1="0.089928627"
       sodipodi:r2="0.044964314"
       sodipodi:arg1="0.82884906"
       sodipodi:arg2="1.4571676"
       inkscape:rounded="0"
       inkscape:randomized="0"
       d="m 6.9053395,17.799203 -0.055669,-0.02162 -0.049367,0.0336 0.00336,-0.05962 -0.047214,-0.03657 0.057743,-0.01523 0.020187,-0.0562 0.032331,0.05021 0.05969,0.0018 -0.037761,0.04626 z"
       inkscape:transform-center-x="0.0065012569"
       inkscape:transform-center-y="-0.029129405"
       transform="matrix(4.1121836,0.23383429,-0.23383429,4.1121836,-14.904307,-56.909894)" />
    <path
       sodipodi:type="star"
       style="fill:#fbf7ef;fill-opacity:1;stroke:#fbf7ef;stroke-width:0;stroke-linecap:round;stroke-dasharray:none;stroke-opacity:1"
       id="path3-1-1"
       inkscape:flatsided="false"
       sodipodi:sides="5"
       sodipodi:cx="6.8445725"
       sodipodi:cy="17.732912"
       sodipodi:r1="0.089928627"
       sodipodi:r2="0.044964314"
       sodipodi:arg1="0.82884906"
       sodipodi:arg2="1.4571676"
       inkscape:rounded="0"
       inkscape:randomized="0"
       d="m 6.9053395,17.799203 -0.055669,-0.02162 -0.049367,0.0336 0.00336,-0.05962 -0.047214,-0.03657 0.057743,-0.01523 0.020187,-0.0562 0.032331,0.05021 0.05969,0.0018 -0.037761,0.04626 z"
       inkscape:transform-center-x="-0.024812629"
       inkscape:transform-center-y="-0.010928871"
       transform="matrix(-4.0961902,-0.43122928,-0.43122928,4.0961902,49.333579,-51.742422)" />
    <path
       sodipodi:type="star"
       style="fill:#fbf7ef;fill-opacity:1;stroke:#fbf7ef;stroke-width:0;stroke-linecap:round;stroke-dasharray:none;stroke-opacity:1"
       id="path3-1-6-8"
       inkscape:flatsided="false"
       sodipodi:sides="5"
       sodipodi:cx="6.8445725"
       sodipodi:cy="17.732912"
       sodipodi:r1="0.089928627"
       sodipodi:r2="0.044964314"
       sodipodi:arg1="0.82884906"
       sodipodi:arg2="1.4571676"
       inkscape:rounded="0"
       inkscape:randomized="0"
       d="m 6.9053395,17.799203 -0.055669,-0.02162 -0.049367,0.0336 0.00336,-0.05962 -0.047214,-0.03657 0.057743,-0.01523 0.020187,-0.0562 0.032331,0.05021 0.05969,0.0018 -0.037761,0.04626 z"
       inkscape:transform-center-x="-0.0065012578"
       inkscape:transform-center-y="-0.029129405"
       transform="matrix(-4.1121836,0.23383429,0.23383429,4.1121836,35.266767,-56.917308)" />
    <path
       style="fill:#cc0000;fill-opacity:1;stroke:#000000;stroke-width:0;stroke-linecap:round;stroke-dasharray:none;stroke-opacity:1"
       d="m 1.570664,2.0191261 c -0.4541483,0.840451 1.4293331,2.480866 1.4293331,2.480866 0,0 1.8835037,-1.640428 1.4293331,-2.480866 -0.234889,-0.43466 -0.6975507,-0.906409 -1.4367775,-0.0077 -0.7221109,-0.89545 -1.1894451,-0.422422 -1.4218887,0.0077 z"
       id="path3"
       sodipodi:nodetypes="acaca"
       inkscape:label="heart" />
    <g
       id="g6"
       transform="matrix(0.92987717,0,0,0.79871548,-11.832797,6.7269747)"
       inkscape:label="clubs"
       style="fill:#fbf7ef;fill-opacity:1">
      <path
         style="fill:#fbf7ef;fill-opacity:1;stroke:#000000;stroke-width:0;stroke-linecap:round;stroke-dasharray:none;stroke-opacity:1"
         d="m 14.914862,24.087381 c 0.768596,0.427739 2.123372,-1.639546 2.123372,-1.639546 0,0 -1.552515,-1.879562 -2.273421,-1.355613 -0.372841,0.270978 -0.766593,0.782726 0.06856,1.505823 -0.755591,0.807831 -0.311892,1.270411 0.08149,1.489336 z"
         id="path3-7-2"
         sodipodi:nodetypes="acaca" />
      <path
         style="fill:#fbf7ef;fill-opacity:1;stroke:#000000;stroke-width:0;stroke-linecap:round;stroke-dasharray:none;stroke-opacity:1"
         d="m 17.040525,21.065692 c -0.762799,-0.45155 -2.176058,1.5727 -2.176058,1.5727 0,0 1.516076,1.927275 2.254074,1.426009 0.38168,-0.259247 0.790259,-0.758521 -0.0323,-1.507393 0.779802,-0.78396 0.344701,-1.260204 -0.04571,-1.491316 z"
         id="path3-7-2-4"
         sodipodi:nodetypes="acaca" />
      <path
         style="fill:#fbf7ef;fill-opacity:1;stroke:#000000;stroke-width:0;stroke-linecap:round;stroke-dasharray:none;stroke-opacity:1"
         d="m 16.35,23.5 c 0.03913,0.87079 -0.3,1.199219 -0.3,1.199219 h 1 c 0,0 -0.350943,-0.464312 -0.3,-1.199219"
         id="path4-9"
         sodipodi:nodetypes="cccc"
         transform="matrix(1.0407202,0,0,1.015358,-1.2725686,-0.32251854)" />
    </g>
    <g
       id="g5"
       transform="matrix(0.95272698,0,0,0.68375648,6.2415568,9.1448185)"
       inkscape:label="diamonds">
      <path
         style="fill:#cc0000;fill-opacity:1;stroke:#000000;stroke-width:0;stroke-linecap:round;stroke-dasharray:none;stroke-opacity:1"
         d="m 9.7919922,22.882109 c -0.476601,0.846933 1.4999998,2.5 1.4999998,2.5 0,0 1.976625,-1.65308 1.5,-2.5 -0.246502,-0.438012 -0.732038,-0.9134 -1.507812,-0.0078 -0.757812,-0.902356 -1.248252,-0.42568 -1.4921878,0.0078 z"
         id="path3-3"
         sodipodi:nodetypes="acaca" />
      <path
         style="fill:#cc0000;fill-opacity:1;stroke:#000000;stroke-width:0;stroke-linecap:round;stroke-dasharray:none;stroke-opacity:1"
         d="m 12.792533,23.494582 c 0.476601,-0.846933 -1.5,-2.5 -1.5,-2.5 0,0 -1.9766251,1.65308 -1.5000001,2.5 0.2465021,0.438012 0.7320381,0.9134 1.5078121,0.0078 0.757812,0.902356 1.248252,0.42568 1.492188,-0.0078 z"
         id="path3-3-3"
         sodipodi:nodetypes="acaca" />
    </g>
    <g
       id="g7"
       inkscape:label="spades"
       transform="matrix(0.95288863,0,0,0.83027033,9.9849766,-15.719588)"
       style="fill:#fbf7ef;fill-opacity:1">
      <path
         style="fill:#fbf7ef;fill-opacity:1;stroke:#000000;stroke-width:0;stroke-linecap:round;stroke-dasharray:none;stroke-opacity:1"
         d="m 10.874,23.242187 c 0.03913,0.87079 -0.3,1.199219 -0.3,1.199219 h 1 c 0,0 -0.350943,-0.464312 -0.3,-1.199219"
         id="path4"
         sodipodi:nodetypes="cccc"
         transform="translate(-3.7123106,-0.08838835)" />
      <path
         style="fill:#fbf7ef;fill-opacity:1;stroke:#000000;stroke-width:0;stroke-linecap:round;stroke-dasharray:none;stroke-opacity:1"
         d="m 12.574176,23.328064 c 0.476568,-0.846952 -1.500102,-2.499939 -1.500102,-2.499939 0,0 -1.9765576,1.65316 -1.4998981,2.500061 0.2465198,0.438002 0.7320751,0.91337 1.5078131,0.0077 0.757849,0.902325 1.24827,0.425629 1.492187,-0.0079 z"
         id="path3-5"
         sodipodi:nodetypes="acaca"
         transform="translate(-3.7123106,-0.08838835)" />
    </g>
  </g>
</svg>
